<?xml version="1.0" encoding="UTF-8"?>
<svg id="b" data-name="Layer 2" xmlns="http://www.w3.org/2000/svg" viewBox="0 0 1117.88589151610222 1104.391670860855811">
  <g id="c" data-name="Layer 1">
    <g>
      <path d="m754.260259489946748,67.230209868412203s-65.074275205854065,212.971906111019052-6.601094281115365,387.085605947559088c58.473165256546054,174.114058567891334,303.269986287505162,273.920004831121332,303.269986287505162,273.920004831121332,0,0-259.215376910044142-88.917686171933383-400.135655012763891.710118103093919-140.920075234746037,89.62727401209122-246.498894174244015,258.394907012563635-265.660586278568189,308.480362277363383,0,0,46.969735063381449-187.088832672521676,20.165796251167194-336.78322280622524-26.803913906822345-149.694137454946031-68.148641152176424-202.422528866150969-338.347291633745044-359.110237194770889,0,0,3.152378183767723,1.319588026119163,8.976415078021091,3.547747901724506,49.524649184717418,18.947138929554058,292.688379834351508,103.775368757695105,441.765067060684487,4.850227470986283,166.608070408394269-110.558946291936081,236.567362528814556-282.700606530852383,236.567362528814556-282.700606530852383m24.037927055785985-62.769786068369285c-.569608444802725-.217920783223235-1.138108190200001-.426663983533217-1.716821957601496-.630318296931364-33.831155067779036-11.907301401588484-70.973622875240835,4.820226766678388-84.33005091243831,38.092598297513177-1.83321349749167,4.359218270143174-66.706518846443942,156.060784535569837-211.589844540540071,252.203179708987591-124.575771571972837,82.666751574417503-354.944576308635988-1.705107575351576-380.802424124752179-11.5978022850868-4.582532284477566-1.753185075967849-7.104537224608066-2.799022761571905-7.129400125253596-2.809507411282539-.594520687927798-.247025320893954-1.192156305527533-.485273182463061-1.7897750860011-.714031734371019-32.151984492160409-12.301434798371702-68.60629374369455,1.796851127175614-83.969554718280051,32.835859143709968-15.649102536110149,31.61582137023106-4.133307813302963,69.932756464839258,26.383450993052975,87.629356888766779,136.710269697587137,79.278088482673411,205.34699062099935,126.840386505582501,244.803906009885395,169.637579795831698,33.397741403310647,36.225522024127713,48.272514678024891,71.055707177796648,61.215643087069111,143.340229184539567,23.872639509198052,133.324724955064084-18.777312545389577,306.982137884768235-19.211039277459349,308.720557160491808-8.237045439307622,33.027758427286244,9.605540571557867,66.75833022777806,40.999227376740237,78.768926066431959,1.269979729378974.485868810103057,2.558489898985499.935059911935241,3.8718502842421,1.348532222220456,33.782619740442897,10.632131157493859,69.996932040497995-6.849986932373213,82.651917728177978-39.928000924366643,12.746682014272665-33.317692838632865,108.673540456886258-192.977559575176201,239.050710170369712-275.89935468335716,43.743888105778751-27.821787082830269,114.92270859673954-36.256357029029459,205.842428120937257-24.392263870324314,75.270907052785333,9.822408771460687,136.089107545663865,30.339837773582985,136.694532534049358,30.545808875080183,34.287078661025589,11.670196476467027,71.677497686523566-6.019080864558418,84.354911829937919-39.946349016892782,12.677626248590968-33.927187005143423-3.875589207938901-71.773145356044552-37.413720095770259-85.447043637906972-.474055414222676-.195345259102396-57.340154065037495-23.779788791802275-119.396742511213233-66.44591891867276-53.181602114993439-36.564473430675207-121.624029937815067-95.180219806677997-145.66885931278739-166.778507342894954-50.720632027365355-151.028609442417292,6.606146995465679-344.352045544977955,7.191077130486519-346.287074387902976,10.310710081608704-33.744866549897779-7.280717951161932-69.712865344628881-40.041422602851526-82.246454833582902h0Z" style="fill: #231f20; stroke-width: 0px;"/>
      <path d="m520.068568694670375,463.241717328346567c61.181684119223064-10.94210153322274,107.85089897056605-62.393884976665504,143.27152339022723-110.228978961149551,18.553280561551219-25.055964820585359-20.440915237508307-53.697004477782684-38.968256841868424-28.676069882536467-27.371421940442815,36.964750409197222-64.451656830569846,82.636696717114319-112.180844154121587,91.172872556515358-30.606647980701382,5.473877592916324-22.873010287239595,53.231796962476437,7.877577605762781,47.73217628717066h0Z" style="fill: #231f20; stroke-width: 0px;"/>
      <circle cx="436.292475035242205" cy="478.607480452366872" r="28.18167196006857" style="fill: #231f20; stroke-width: 0px;"/>
    </g>
  </g>
</svg>